<?xml version="1.0" encoding="utf-8"?>
<!-- Generator: Adobe Illustrator 16.0.0, SVG Export Plug-In . SVG Version: 6.00 Build 0)  -->
<!DOCTYPE svg PUBLIC "-//W3C//DTD SVG 1.0//EN" "http://www.w3.org/TR/2001/REC-SVG-20010904/DTD/svg10.dtd">
<svg version="1.0" id="Layer_1" xmlns="http://www.w3.org/2000/svg" xmlns:xlink="http://www.w3.org/1999/xlink" x="0px" y="0px"
	 width="50px" height="50px" viewBox="0 0 250 250" enable-background="new 0 0 250 250" xml:space="preserve">
<g>
	<g>
		<polygon fill="#232937" points="116.961,101.292 148.039,59.428 179.116,101.292 		"/>
		<polygon fill="#232937" points="81.139,146.744 112.216,104.878 143.293,146.744 		"/>
		<polygon fill="#232937" points="116.455,192 147.532,150.134 178.61,192 		"/>
		<polygon fill="#232937" points="81.235,60 112.313,101.865 143.391,60 		"/>
		<polygon fill="#232937" points="81.645,150 112.723,191.865 143.8,150 		"/>
		<polygon fill="#232937" points="116.455,105 147.532,146.865 178.61,105 		"/>
	</g>
	<g>
		<g>
			<path fill="#232937" d="M125.36,16.46c-60.12,0-109.03,48.911-109.03,109.03S65.241,234.52,125.36,234.52
				c60.119,0,109.02-48.91,109.02-109.029S185.479,16.46,125.36,16.46z M125.36,223.363c-53.971,0-97.875-43.901-97.875-97.873
				c0-53.971,43.903-97.875,97.875-97.875c53.972,0,97.873,43.903,97.873,97.875C223.233,179.462,179.332,223.363,125.36,223.363z"
				/>
		</g>
	</g>
	<path fill="#767777" d="M163.278,125.489"/>
</g>
</svg>
